<svg width="100" height="100" viewBox="0 0 100 100" fill="none" xmlns="http://www.w3.org/2000/svg">
<path d="M36.7123 65.2686C36.7123 65.2686 50.7215 88.316 67.4422 66.6243" stroke="#3B00F0" stroke-width="4"/>
<path d="M11.4051 49.4517C5.07838 50.3556 -2.15222 79.2779 26.77 74.3068" stroke="#3B00F0" stroke-width="4"/>
<path d="M44.8465 25.0486C30.8374 19.6256 19.9914 28.212 21.7991 44.0288" stroke="#3B00F0" stroke-width="4"/>
<path d="M44.9365 24.6971C30.9273 19.2741 20.0814 27.8605 21.889 43.6773" stroke="#3B00F0" stroke-width="4"/>
<path d="M68.346 39.0578C66.0864 25.0486 53.8848 32.731 53.8848 32.731" stroke="#3B00F0" stroke-width="4"/>
<path d="M84.1625 72.9511C99.9794 67.0763 95.4603 39.9616 74.2205 44.9326" stroke="#3B00F0" stroke-width="4"/>
<path d="M57.9517 52.6151C57.0479 40.8655 41.231 39.9616 36.7119 48.5479" stroke="#3B00F0" stroke-width="4"/>
<ellipse cx="36.7119" cy="63.9129" rx="5.42293" ry="5.42292" fill="#3B00F0"/>
<ellipse cx="83.7109" cy="72.0473" rx="5.42293" ry="5.42292" fill="#3B00F0"/>
<ellipse cx="44.8466" cy="25.0486" rx="5.42293" ry="5.42292" fill="#3B00F0"/>
<ellipse cx="11.405" cy="49.4517" rx="5.42293" ry="5.42292" fill="#3B00F0"/>
<ellipse cx="57.9518" cy="52.6151" rx="4.0672" ry="4.06719" fill="#3B00F0"/>
<ellipse cx="68.3459" cy="38.6059" rx="2.71146" ry="2.71146" fill="#3B00F0"/>
</svg>
